<?xml version="1.0" standalone="no"?>
<!DOCTYPE svg PUBLIC "-//W3C//DTD SVG 20010904//EN"
 "http://www.w3.org/TR/2001/REC-SVG-20010904/DTD/svg10.dtd">
<svg version="1.0" xmlns="http://www.w3.org/2000/svg"
 width="722.000000pt" height="722.000000pt" viewBox="0 0 722.000000 722.000000"
 preserveAspectRatio="xMidYMid meet">
<metadata>
Created by potrace 1.11, written by Peter Selinger 2001-2013
</metadata>
<g transform="translate(0.000000,722.000000) scale(0.100000,-0.100000)"
fill="#000000" stroke="none">
<path d="M197 4723 c-2 -5 -5 -61 -5 -125 0 -83 3 -118 11 -119 7 -1 100 -2
207 -3 l195 -1 0 -580 0 -580 148 -2 c107 -1 147 2 148 10 1 7 3 262 4 567 1
305 3 562 4 570 1 13 29 15 196 15 107 0 195 -2 196 -5 0 -3 1 -264 2 -580 l2
-575 649 0 648 0 56 158 57 157 275 0 275 0 60 -157 60 -158 273 -2 272 -2 2
517 c3 536 3 531 34 387 1 -5 10 -39 19 -75 9 -36 18 -72 20 -80 2 -8 44 -178
94 -378 50 -199 91 -364 91 -366 0 -2 63 -4 140 -5 138 -1 141 -1 149 22 7 19
83 317 96 375 12 54 156 616 159 619 2 2 4 -357 4 -799 1 -920 3 -977 42
-1080 36 -96 123 -186 221 -231 98 -45 342 -61 471 -31 173 40 295 150 327
294 5 25 13 59 17 75 3 17 8 261 11 543 l4 512 -146 0 -145 0 -1 -457 c0 -252
-3 -485 -5 -518 -9 -101 -62 -173 -144 -195 -40 -11 -140 -14 -175 -6 -95 21
-162 91 -181 186 -6 34 -11 454 -16 1555 l-3 550 -219 0 -220 0 -23 -90 c-13
-49 -25 -97 -27 -105 -2 -8 -12 -44 -21 -80 -9 -36 -18 -72 -20 -80 -2 -8 -13
-49 -24 -90 -11 -41 -38 -147 -61 -235 -23 -88 -46 -177 -51 -199 -11 -39 -17
-42 -23 -10 -3 11 -14 54 -26 96 -11 43 -23 85 -25 95 -2 10 -29 113 -60 228
-31 116 -58 218 -60 227 -4 16 -50 191 -61 230 -5 16 -25 17 -222 15 l-217 -2
-2 -623 c-1 -343 -3 -626 -5 -628 -2 -2 -82 191 -177 429 -95 238 -181 450
-190 472 -10 22 -46 111 -81 197 l-62 158 -157 -3 -156 -2 -13 -29 c-8 -15
-15 -33 -17 -40 -1 -6 -6 -20 -10 -31 -5 -11 -95 -246 -201 -522 -106 -276
-197 -510 -202 -520 -10 -17 -32 -18 -384 -17 -205 1 -378 2 -384 3 -7 1 -11
58 -11 180 l0 180 345 -1 c229 0 347 4 351 11 4 5 6 61 6 123 l0 113 -351 3
-351 2 0 148 0 147 376 0 376 0 0 125 0 125 -1077 3 c-592 1 -1079 -1 -1081
-5z m2848 -518 c59 -157 115 -310 115 -318 0 -3 -78 -4 -172 -3 -148 1 -173 3
-170 16 3 19 100 295 117 335 7 17 18 48 25 70 14 43 20 58 25 53 1 -2 28 -70
60 -153z"/>
<path d="M5928 3603 c-4 -7 -3 -1370 1 -1398 1 -6 54 -10 141 -10 l140 0 1 70
c1 38 1 157 1 263 -1 142 2 192 11 192 7 1 93 3 192 4 188 4 232 9 295 31 134
47 239 178 258 324 10 74 6 178 -9 236 -41 151 -160 259 -312 283 -73 12 -714
16 -719 5z m650 -272 c110 -56 136 -205 51 -292 -49 -51 -93 -61 -281 -63
-108 -2 -129 0 -132 13 -3 9 -5 95 -5 193 l0 176 163 -3 c142 -2 167 -5 204
-24z"/>
</g>
</svg>
